<svg xmlns="http://www.w3.org/2000/svg" viewBox="0 0 64 64" role="img" aria-label="Ohsibon">
  <circle cx="32" cy="32" r="31" fill="#bf5630"/>
  <circle cx="32" cy="32" r="31" fill="none" stroke="#7a3c20" stroke-width="2"/>
  <path fill="#e8492b" stroke="#3a1c10" stroke-width="1.6" stroke-linejoin="round" d="
    M32 9
    l4.2 8.6 6.2-3.1-2.0 7.6 8.0-0.6-5.4 5.9 8.2 3.0-7.6 2.4 4.4 6.0-7.0-1.4 1.1 8.2-6.1-5.0-2.0 5.0-2.0-5.0-6.1 5.0 1.1-8.2-7.0 1.4 4.4-6.0-7.6-2.4 8.2-3.0-5.4-5.9 8.0 0.6-2.0-7.6 6.2 3.1z"/>
  <path fill="none" stroke="#3a1c10" stroke-width="1.4" stroke-linecap="round" d="M32 50 V30 M32 36 l-5 -4 M32 36 l5 -4 M32 42 l-6 -5 M32 42 l6 -5"/>
</svg>
